# xmcd
#
# Track frame offsets:
#	150
#	17603
#	32393
#	47430
#	60658
#	76585
#	89358
#	102010
#	117025
#	134365
#	149535
#	164363
#	179375
#	196240
#	213325
#
# Disc length: 3022 seconds
#
# Revision: 1
# Processed by: cddbd v1.5.1PL0 Copyright (c) Steve Scherf et al.
# Submitted via: CDex 1.50Beta5
#
DISCID=b90bcc0f
DTITLE=石原裕次郎 - 石原裕次郎 7
DYEAR=1900
DGENRE=
TTITLE0=夕陽の丘
TTITLE1=石原裕次郎/傷心の雨
TTITLE2=石原裕次郎/あしたの虹
TTITLE3=石原裕次郎/ふるさとの花
TTITLE4=石原裕次郎/俺はお前に弱いんだ
TTITLE5=石原裕次郎/明日の虹
TTITLE6=石原裕次郎/ふるさとの花
TTITLE7=石原裕次郎/黒い海峡
TTITLE8=石原裕次郎/無情の街
TTITLE9=石原裕次郎/東京さすらい歌
TTITLE10=石原裕次郎/可哀そうな露子
TTITLE11=石原裕次郎/黒い海峡
TTITLE12=石原裕次郎/男の秋
TTITLE13=石原裕次郎/俺の心に風が吹く
TTITLE14=石原裕次郎/幸せをいつまでも
EXTD=
EXTT0=
EXTT1=
EXTT2=
EXTT3=
EXTT4=
EXTT5=
EXTT6=
EXTT7=
EXTT8=
EXTT9=
EXTT10=
EXTT11=
EXTT12=
EXTT13=
EXTT14=
PLAYORDER=
